# MagicaVoxel @ Ephtracy

# group
o 

# material
mtllib Legendary Katana.mtl
usemtl palette

# normals
vn -1 0 0
vn 1 0 0
vn 0 0 1
vn 0 0 -1
vn 0 -1 0
vn 0 1 0

# texcoords
vt 0.0644531 0.5
vt 0.869141 0.5
vt 0.873047 0.5
vt 0.943359 0.5
vt 0.947266 0.5
vt 0.951172 0.5
vt 0.955078 0.5
vt 0.958984 0.5
vt 0.962891 0.5
vt 0.986328 0.5
vt 0.990234 0.5
vt 0.994141 0.5

# verts
v -0.4 0.1 -1.7
v -0.4 0.1 -1.8
v -0.4 0.1 -1.9
v -0.4 0.2 -1.7
v -0.4 0.2 -1.8
v -0.4 0.2 -1.9
v -0.3 0.1 -1.4
v -0.3 0.1 -1.7
v -0.3 0.2 -1.4
v -0.3 0.2 -1.7
v -0.2 0 0.9
v -0.2 0 0.8
v -0.2 0.1 1.7
v -0.2 0.1 1.6
v -0.2 0.1 1.4
v -0.2 0.1 1.3
v -0.2 0.1 1.2
v -0.2 0.1 1.1
v -0.2 0.1 0.8
v -0.2 0.1 0.7
v -0.2 0.1 0.6
v -0.2 0.1 0.5
v -0.2 0.1 0.4
v -0.2 0.1 0.3
v -0.2 0.1 0.2
v -0.2 0.1 0.1
v -0.2 0.1 0
v -0.2 0.1 -0.1
v -0.2 0.1 -0.8
v -0.2 0.1 -1.4
v -0.2 0.2 1.7
v -0.2 0.2 1.6
v -0.2 0.2 1.4
v -0.2 0.2 1.3
v -0.2 0.2 1.2
v -0.2 0.2 1.1
v -0.2 0.2 0.8
v -0.2 0.2 0.7
v -0.2 0.2 0.6
v -0.2 0.2 0.5
v -0.2 0.2 0.4
v -0.2 0.2 0.3
v -0.2 0.2 0.2
v -0.2 0.2 0.1
v -0.2 0.2 0
v -0.2 0.2 -0.1
v -0.2 0.2 -0.8
v -0.2 0.2 -1.4
v -0.2 0.3 0.9
v -0.2 0.3 0.8
v -0.1 0 1.7
v -0.1 0 1.6
v -0.1 0 1.4
v -0.1 0 1.3
v -0.1 0 1.2
v -0.1 0 1.1
v -0.1 0.1 1.8
v -0.1 0.1 1.7
v -0.1 0.1 1.6
v -0.1 0.1 1.5
v -0.1 0.1 1.4
v -0.1 0.1 1.3
v -0.1 0.1 1.2
v -0.1 0.1 1.1
v -0.1 0.1 1
v -0.1 0.1 0.9
v -0.1 0.1 0.7
v -0.1 0.1 0.6
v -0.1 0.1 0.5
v -0.1 0.1 0.4
v -0.1 0.1 0.3
v -0.1 0.1 0.2
v -0.1 0.1 0.1
v -0.1 0.1 0
v -0.1 0.1 -0.1
v -0.1 0.1 -0.8
v -0.1 0.2 1.8
v -0.1 0.2 1.7
v -0.1 0.2 1.6
v -0.1 0.2 1.5
v -0.1 0.2 1.4
v -0.1 0.2 1.3
v -0.1 0.2 1.2
v -0.1 0.2 1.1
v -0.1 0.2 1
v -0.1 0.2 0.9
v -0.1 0.2 0.7
v -0.1 0.2 0.6
v -0.1 0.2 0.5
v -0.1 0.2 0.4
v -0.1 0.2 0.3
v -0.1 0.2 0.2
v -0.1 0.2 0.1
v -0.1 0.2 0
v -0.1 0.2 -0.1
v -0.1 0.2 -0.8
v -0.1 0.3 1.7
v -0.1 0.3 1.6
v -0.1 0.3 1.4
v -0.1 0.3 1.3
v -0.1 0.3 1.2
v -0.1 0.3 1.1
v 0 0.1 1.9
v 0 0.1 1.8
v 0 0.2 1.9
v 0 0.2 1.8
v -0.2 0.1 -1.8
v -0.2 0.1 -1.9
v -0.2 0.2 -1.8
v -0.2 0.2 -1.9
v -0.1 0.1 -1.5
v -0.1 0.1 -1.8
v -0.1 0.2 -1.5
v -0.1 0.2 -1.8
v 0 0.1 -1.1
v 0 0.1 -1.5
v 0 0.2 -1.1
v 0 0.2 -1.5
v 0.1 0 1.7
v 0.1 0 1.6
v 0.1 0 1.4
v 0.1 0 1.3
v 0.1 0 1.2
v 0.1 0 1.1
v 0.1 0.1 1.9
v 0.1 0.1 1.7
v 0.1 0.1 1.6
v 0.1 0.1 1.5
v 0.1 0.1 1.4
v 0.1 0.1 1.3
v 0.1 0.1 1.2
v 0.1 0.1 1.1
v 0.1 0.1 1
v 0.1 0.1 0.9
v 0.1 0.1 0.8
v 0.1 0.1 0.5
v 0.1 0.1 0.4
v 0.1 0.1 0.1
v 0.1 0.1 -0.3
v 0.1 0.1 -1.1
v 0.1 0.2 1.9
v 0.1 0.2 1.7
v 0.1 0.2 1.6
v 0.1 0.2 1.5
v 0.1 0.2 1.4
v 0.1 0.2 1.3
v 0.1 0.2 1.2
v 0.1 0.2 1.1
v 0.1 0.2 1
v 0.1 0.2 0.9
v 0.1 0.2 0.8
v 0.1 0.2 0.5
v 0.1 0.2 0.4
v 0.1 0.2 0.1
v 0.1 0.2 -0.3
v 0.1 0.2 -1.1
v 0.1 0.3 1.7
v 0.1 0.3 1.6
v 0.1 0.3 1.4
v 0.1 0.3 1.3
v 0.1 0.3 1.2
v 0.1 0.3 1.1
v 0.2 0 0.9
v 0.2 0 0.8
v 0.2 0.1 1.7
v 0.2 0.1 1.6
v 0.2 0.1 1.4
v 0.2 0.1 1.3
v 0.2 0.1 1.2
v 0.2 0.1 1.1
v 0.2 0.2 1.7
v 0.2 0.2 1.6
v 0.2 0.2 1.4
v 0.2 0.2 1.3
v 0.2 0.2 1.2
v 0.2 0.2 1.1
v 0.2 0.3 0.9
v 0.2 0.3 0.8
v 0 0.1 1.9
v 0 0.2 1.9
v 0.1 0.1 1.9
v 0.1 0.2 1.9
v -0.1 0.1 1.8
v -0.1 0.2 1.8
v 0 0.1 1.8
v 0 0.2 1.8
v -0.2 0.1 1.7
v -0.2 0.2 1.7
v -0.1 0 1.7
v -0.1 0.1 1.7
v -0.1 0.2 1.7
v -0.1 0.3 1.7
v 0.1 0 1.7
v 0.1 0.1 1.7
v 0.1 0.2 1.7
v 0.1 0.3 1.7
v 0.2 0.1 1.7
v 0.2 0.2 1.7
v -0.2 0.1 1.4
v -0.2 0.2 1.4
v -0.1 0 1.4
v -0.1 0.1 1.4
v -0.1 0.2 1.4
v -0.1 0.3 1.4
v 0 0.1 1.4
v 0 0.2 1.4
v 0.1 0 1.4
v 0.1 0.1 1.4
v 0.1 0.2 1.4
v 0.1 0.3 1.4
v 0.2 0.1 1.4
v 0.2 0.2 1.4
v -0.2 0.1 1.2
v -0.2 0.2 1.2
v -0.1 0 1.2
v -0.1 0.1 1.2
v -0.1 0.2 1.2
v -0.1 0.3 1.2
v 0 0.1 1.2
v 0 0.2 1.2
v 0.1 0 1.2
v 0.1 0.1 1.2
v 0.1 0.2 1.2
v 0.1 0.3 1.2
v 0.2 0.1 1.2
v 0.2 0.2 1.2
v -0.2 0 0.9
v -0.2 0.3 0.9
v -0.1 0.1 0.9
v -0.1 0.2 0.9
v 0 0.1 0.9
v 0 0.2 0.9
v 0.1 0.1 0.9
v 0.1 0.2 0.9
v 0.2 0 0.9
v 0.2 0.3 0.9
v -0.2 0.1 0.6
v -0.2 0.2 0.6
v -0.1 0.1 0.6
v -0.1 0.2 0.6
v -0.2 0.1 0.4
v -0.2 0.2 0.4
v -0.1 0.1 0.4
v -0.1 0.2 0.4
v -0.2 0.1 0.2
v -0.2 0.2 0.2
v -0.1 0.1 0.2
v -0.1 0.2 0.2
v -0.2 0.1 0
v -0.2 0.2 0
v -0.1 0.1 0
v -0.1 0.2 0
v -0.2 0.1 -0.8
v -0.2 0.2 -0.8
v -0.1 0.1 -0.8
v -0.1 0.2 -0.8
v -0.3 0.1 -1.4
v -0.3 0.2 -1.4
v -0.2 0.1 -1.4
v -0.2 0.2 -1.4
v -0.4 0.1 -1.7
v -0.4 0.2 -1.7
v -0.3 0.1 -1.7
v -0.3 0.2 -1.7
v -0.2 0.1 1.6
v -0.2 0.2 1.6
v -0.1 0 1.6
v -0.1 0.1 1.6
v -0.1 0.2 1.6
v -0.1 0.3 1.6
v 0 0.1 1.6
v 0 0.2 1.6
v 0.1 0 1.6
v 0.1 0.1 1.6
v 0.1 0.2 1.6
v 0.1 0.3 1.6
v 0.2 0.1 1.6
v 0.2 0.2 1.6
v -0.2 0.1 1.3
v -0.2 0.2 1.3
v -0.1 0 1.3
v -0.1 0.1 1.3
v -0.1 0.2 1.3
v -0.1 0.3 1.3
v 0 0.1 1.3
v 0 0.2 1.3
v 0.1 0 1.3
v 0.1 0.1 1.3
v 0.1 0.2 1.3
v 0.1 0.3 1.3
v 0.2 0.1 1.3
v 0.2 0.2 1.3
v -0.2 0.1 1.1
v -0.2 0.2 1.1
v -0.1 0 1.1
v -0.1 0.1 1.1
v -0.1 0.2 1.1
v -0.1 0.3 1.1
v 0 0.1 1.1
v 0 0.2 1.1
v 0.1 0 1.1
v 0.1 0.1 1.1
v 0.1 0.2 1.1
v 0.1 0.3 1.1
v 0.2 0.1 1.1
v 0.2 0.2 1.1
v -0.2 0 0.8
v -0.2 0.1 0.8
v -0.2 0.2 0.8
v -0.2 0.3 0.8
v 0 0.1 0.8
v 0 0.2 0.8
v 0.1 0.1 0.8
v 0.1 0.2 0.8
v 0.2 0 0.8
v 0.2 0.3 0.8
v -0.2 0.1 0.7
v -0.2 0.2 0.7
v -0.1 0.1 0.7
v -0.1 0.2 0.7
v -0.2 0.1 0.5
v -0.2 0.2 0.5
v -0.1 0.1 0.5
v -0.1 0.2 0.5
v -0.2 0.1 0.3
v -0.2 0.2 0.3
v -0.1 0.1 0.3
v -0.1 0.2 0.3
v -0.2 0.1 0.1
v -0.2 0.2 0.1
v -0.1 0.1 0.1
v -0.1 0.2 0.1
v -0.2 0.1 -0.1
v -0.2 0.2 -0.1
v -0.1 0.1 -0.1
v -0.1 0.2 -0.1
v 0 0.1 -1.1
v 0 0.2 -1.1
v 0.1 0.1 -1.1
v 0.1 0.2 -1.1
v -0.1 0.1 -1.5
v -0.1 0.2 -1.5
v 0 0.1 -1.5
v 0 0.2 -1.5
v -0.2 0.1 -1.8
v -0.2 0.2 -1.8
v -0.1 0.1 -1.8
v -0.1 0.2 -1.8
v -0.4 0.1 -1.9
v -0.4 0.2 -1.9
v -0.2 0.1 -1.9
v -0.2 0.2 -1.9
v -0.1 0 1.7
v 0.1 0 1.7
v -0.1 0 1.6
v 0.1 0 1.6
v -0.1 0 1.4
v 0.1 0 1.4
v -0.1 0 1.3
v 0.1 0 1.3
v -0.1 0 1.2
v 0.1 0 1.2
v -0.1 0 1.1
v 0.1 0 1.1
v -0.2 0 0.9
v 0.2 0 0.9
v -0.2 0 0.8
v 0.2 0 0.8
v 0 0.1 1.9
v 0.1 0.1 1.9
v -0.1 0.1 1.8
v 0 0.1 1.8
v -0.2 0.1 1.7
v -0.1 0.1 1.7
v 0.1 0.1 1.7
v 0.2 0.1 1.7
v -0.2 0.1 1.6
v -0.1 0.1 1.6
v 0 0.1 1.6
v 0.1 0.1 1.6
v 0.2 0.1 1.6
v -0.1 0.1 1.5
v 0 0.1 1.5
v 0.1 0.1 1.5
v -0.2 0.1 1.4
v -0.1 0.1 1.4
v 0 0.1 1.4
v 0.1 0.1 1.4
v 0.2 0.1 1.4
v -0.2 0.1 1.3
v -0.1 0.1 1.3
v 0 0.1 1.3
v 0.1 0.1 1.3
v 0.2 0.1 1.3
v -0.2 0.1 1.2
v -0.1 0.1 1.2
v 0 0.1 1.2
v 0.1 0.1 1.2
v 0.2 0.1 1.2
v -0.2 0.1 1.1
v -0.1 0.1 1.1
v 0 0.1 1.1
v 0.1 0.1 1.1
v 0.2 0.1 1.1
v -0.1 0.1 1
v 0 0.1 1
v 0.1 0.1 1
v -0.1 0.1 0.9
v 0 0.1 0.9
v 0.1 0.1 0.9
v -0.2 0.1 0.8
v 0 0.1 0.8
v 0.1 0.1 0.8
v -0.2 0.1 0.7
v -0.1 0.1 0.7
v -0.2 0.1 0.6
v -0.1 0.1 0.6
v -0.2 0.1 0.5
v -0.1 0.1 0.5
v 0 0.1 0.5
v 0.1 0.1 0.5
v -0.2 0.1 0.4
v -0.1 0.1 0.4
v 0 0.1 0.4
v 0.1 0.1 0.4
v -0.2 0.1 0.3
v -0.1 0.1 0.3
v -0.2 0.1 0.2
v -0.1 0.1 0.2
v 0 0.1 0.2
v -0.2 0.1 0.1
v -0.1 0.1 0.1
v 0 0.1 0.1
v 0.1 0.1 0.1
v -0.2 0.1 0
v -0.1 0.1 0
v -0.2 0.1 -0.1
v -0.1 0.1 -0.1
v 0 0.1 -0.1
v 0 0.1 -0.3
v 0.1 0.1 -0.3
v -0.2 0.1 -0.8
v -0.1 0.1 -0.8
v -0.1 0.1 -0.9
v 0 0.1 -0.9
v 0 0.1 -1.1
v 0.1 0.1 -1.1
v -0.3 0.1 -1.4
v -0.2 0.1 -1.4
v -0.1 0.1 -1.4
v -0.1 0.1 -1.5
v 0 0.1 -1.5
v -0.4 0.1 -1.7
v -0.3 0.1 -1.7
v -0.2 0.1 -1.7
v -0.4 0.1 -1.8
v -0.3 0.1 -1.8
v -0.2 0.1 -1.8
v -0.1 0.1 -1.8
v -0.4 0.1 -1.9
v -0.2 0.1 -1.9
v 0 0.2 1.9
v 0.1 0.2 1.9
v -0.1 0.2 1.8
v 0 0.2 1.8
v -0.2 0.2 1.7
v -0.1 0.2 1.7
v 0.1 0.2 1.7
v 0.2 0.2 1.7
v -0.2 0.2 1.6
v -0.1 0.2 1.6
v 0 0.2 1.6
v 0.1 0.2 1.6
v 0.2 0.2 1.6
v -0.1 0.2 1.5
v 0 0.2 1.5
v 0.1 0.2 1.5
v -0.2 0.2 1.4
v -0.1 0.2 1.4
v 0 0.2 1.4
v 0.1 0.2 1.4
v 0.2 0.2 1.4
v -0.2 0.2 1.3
v -0.1 0.2 1.3
v 0 0.2 1.3
v 0.1 0.2 1.3
v 0.2 0.2 1.3
v -0.2 0.2 1.2
v -0.1 0.2 1.2
v 0 0.2 1.2
v 0.1 0.2 1.2
v 0.2 0.2 1.2
v -0.2 0.2 1.1
v -0.1 0.2 1.1
v 0 0.2 1.1
v 0.1 0.2 1.1
v 0.2 0.2 1.1
v -0.1 0.2 1
v 0 0.2 1
v 0.1 0.2 1
v -0.1 0.2 0.9
v 0 0.2 0.9
v 0.1 0.2 0.9
v -0.2 0.2 0.8
v 0 0.2 0.8
v 0.1 0.2 0.8
v -0.2 0.2 0.7
v -0.1 0.2 0.7
v -0.2 0.2 0.6
v -0.1 0.2 0.6
v -0.2 0.2 0.5
v -0.1 0.2 0.5
v 0 0.2 0.5
v 0.1 0.2 0.5
v -0.2 0.2 0.4
v -0.1 0.2 0.4
v 0 0.2 0.4
v 0.1 0.2 0.4
v -0.2 0.2 0.3
v -0.1 0.2 0.3
v -0.2 0.2 0.2
v -0.1 0.2 0.2
v 0 0.2 0.2
v -0.2 0.2 0.1
v -0.1 0.2 0.1
v 0 0.2 0.1
v 0.1 0.2 0.1
v -0.2 0.2 0
v -0.1 0.2 0
v -0.2 0.2 -0.1
v -0.1 0.2 -0.1
v 0 0.2 -0.1
v 0 0.2 -0.3
v 0.1 0.2 -0.3
v -0.2 0.2 -0.8
v -0.1 0.2 -0.8
v -0.1 0.2 -0.9
v 0 0.2 -0.9
v 0 0.2 -1.1
v 0.1 0.2 -1.1
v -0.3 0.2 -1.4
v -0.2 0.2 -1.4
v -0.1 0.2 -1.4
v -0.1 0.2 -1.5
v 0 0.2 -1.5
v -0.4 0.2 -1.7
v -0.3 0.2 -1.7
v -0.2 0.2 -1.7
v -0.4 0.2 -1.8
v -0.3 0.2 -1.8
v -0.2 0.2 -1.8
v -0.1 0.2 -1.8
v -0.4 0.2 -1.9
v -0.2 0.2 -1.9
v -0.1 0.3 1.7
v 0.1 0.3 1.7
v -0.1 0.3 1.6
v 0.1 0.3 1.6
v -0.1 0.3 1.4
v 0.1 0.3 1.4
v -0.1 0.3 1.3
v 0.1 0.3 1.3
v -0.1 0.3 1.2
v 0.1 0.3 1.2
v -0.1 0.3 1.1
v 0.1 0.3 1.1
v -0.2 0.3 0.9
v 0.2 0.3 0.9
v -0.2 0.3 0.8
v 0.2 0.3 0.8

# faces
f 4/4/1 2/4/1 1/4/1
f 5/5/1 3/5/1 2/5/1
f 5/4/1 2/4/1 4/4/1
f 6/5/1 3/5/1 5/5/1
f 9/4/1 8/4/1 7/4/1
f 10/4/1 8/4/1 9/4/1
f 19/11/1 12/11/1 11/11/1
f 31/1/1 14/1/1 13/1/1
f 32/1/1 14/1/1 31/1/1
f 33/1/1 16/1/1 15/1/1
f 34/1/1 16/1/1 33/1/1
f 35/1/1 18/1/1 17/1/1
f 36/1/1 18/1/1 35/1/1
f 37/11/1 19/11/1 11/11/1
f 37/12/1 20/12/1 19/12/1
f 38/12/1 20/12/1 37/12/1
f 39/12/1 22/12/1 21/12/1
f 40/12/1 22/12/1 39/12/1
f 41/10/1 24/10/1 23/10/1
f 42/10/1 24/10/1 41/10/1
f 43/10/1 26/10/1 25/10/1
f 44/10/1 26/10/1 43/10/1
f 45/10/1 28/10/1 27/10/1
f 46/10/1 28/10/1 45/10/1
f 47/4/1 30/4/1 29/4/1
f 48/4/1 30/4/1 47/4/1
f 49/11/1 37/11/1 11/11/1
f 50/11/1 37/11/1 49/11/1
f 58/1/1 52/1/1 51/1/1
f 59/1/1 52/1/1 58/1/1
f 61/1/1 54/1/1 53/1/1
f 62/1/1 54/1/1 61/1/1
f 63/1/1 56/1/1 55/1/1
f 64/1/1 56/1/1 63/1/1
f 77/1/1 58/1/1 57/1/1
f 78/1/1 58/1/1 77/1/1
f 79/2/1 60/2/1 59/2/1
f 80/3/1 61/3/1 60/3/1
f 80/2/1 60/2/1 79/2/1
f 81/3/1 61/3/1 80/3/1
f 82/2/1 63/2/1 62/2/1
f 83/2/1 63/2/1 82/2/1
f 84/3/1 65/3/1 64/3/1
f 85/2/1 66/2/1 65/2/1
f 85/3/1 65/3/1 84/3/1
f 86/2/1 66/2/1 85/2/1
f 87/12/1 68/12/1 67/12/1
f 88/12/1 68/12/1 87/12/1
f 89/12/1 70/12/1 69/12/1
f 90/12/1 70/12/1 89/12/1
f 91/12/1 72/12/1 71/12/1
f 92/12/1 72/12/1 91/12/1
f 93/10/1 74/10/1 73/10/1
f 94/10/1 74/10/1 93/10/1
f 95/4/1 76/4/1 75/4/1
f 96/4/1 76/4/1 95/4/1
f 97/1/1 79/1/1 78/1/1
f 98/1/1 79/1/1 97/1/1
f 99/1/1 82/1/1 81/1/1
f 100/1/1 82/1/1 99/1/1
f 101/1/1 84/1/1 83/1/1
f 102/1/1 84/1/1 101/1/1
f 105/1/1 104/1/1 103/1/1
f 106/1/1 104/1/1 105/1/1
f 107/5/2 108/5/2 109/5/2
f 109/5/2 108/5/2 110/5/2
f 111/5/2 112/5/2 113/5/2
f 113/5/2 112/5/2 114/5/2
f 115/5/2 116/5/2 117/5/2
f 117/5/2 116/5/2 118/5/2
f 119/1/2 120/1/2 126/1/2
f 126/1/2 120/1/2 127/1/2
f 121/1/2 122/1/2 129/1/2
f 129/1/2 122/1/2 130/1/2
f 123/1/2 124/1/2 131/1/2
f 131/1/2 124/1/2 132/1/2
f 125/1/2 126/1/2 141/1/2
f 141/1/2 126/1/2 142/1/2
f 127/3/2 128/3/2 143/3/2
f 128/2/2 129/2/2 144/2/2
f 143/3/2 128/3/2 144/3/2
f 144/2/2 129/2/2 145/2/2
f 130/3/2 131/3/2 146/3/2
f 146/3/2 131/3/2 147/3/2
f 132/2/2 133/2/2 148/2/2
f 133/3/2 134/3/2 149/3/2
f 148/2/2 133/2/2 149/2/2
f 149/3/2 134/3/2 150/3/2
f 135/9/2 136/9/2 151/9/2
f 136/8/2 137/8/2 152/8/2
f 151/9/2 136/9/2 152/9/2
f 137/7/2 138/7/2 153/7/2
f 152/8/2 137/8/2 153/8/2
f 138/6/2 139/6/2 154/6/2
f 153/7/2 138/7/2 154/7/2
f 139/5/2 140/5/2 155/5/2
f 154/6/2 139/6/2 155/6/2
f 155/5/2 140/5/2 156/5/2
f 142/1/2 143/1/2 157/1/2
f 157/1/2 143/1/2 158/1/2
f 145/1/2 146/1/2 159/1/2
f 159/1/2 146/1/2 160/1/2
f 147/1/2 148/1/2 161/1/2
f 161/1/2 148/1/2 162/1/2
f 165/1/2 166/1/2 171/1/2
f 171/1/2 166/1/2 172/1/2
f 167/1/2 168/1/2 173/1/2
f 173/1/2 168/1/2 174/1/2
f 169/1/2 170/1/2 175/1/2
f 175/1/2 170/1/2 176/1/2
f 163/11/2 164/11/2 177/11/2
f 177/11/2 164/11/2 178/11/2
f 181/1/3 180/1/3 179/1/3
f 182/1/3 180/1/3 181/1/3
f 185/1/3 184/1/3 183/1/3
f 186/1/3 184/1/3 185/1/3
f 190/1/3 188/1/3 187/1/3
f 191/1/3 188/1/3 190/1/3
f 193/1/3 190/1/3 189/1/3
f 194/1/3 190/1/3 193/1/3
f 195/1/3 192/1/3 191/1/3
f 196/1/3 192/1/3 195/1/3
f 197/1/3 195/1/3 194/1/3
f 198/1/3 195/1/3 197/1/3
f 202/1/3 200/1/3 199/1/3
f 203/1/3 200/1/3 202/1/3
f 205/1/3 202/1/3 201/1/3
f 206/1/3 204/1/3 203/1/3
f 207/1/3 205/1/3 201/1/3
f 208/1/3 205/1/3 207/1/3
f 209/1/3 204/1/3 206/1/3
f 210/1/3 204/1/3 209/1/3
f 211/1/3 209/1/3 208/1/3
f 212/1/3 209/1/3 211/1/3
f 216/1/3 214/1/3 213/1/3
f 217/1/3 214/1/3 216/1/3
f 219/1/3 216/1/3 215/1/3
f 220/1/3 218/1/3 217/1/3
f 221/1/3 219/1/3 215/1/3
f 222/1/3 219/1/3 221/1/3
f 223/1/3 218/1/3 220/1/3
f 224/1/3 218/1/3 223/1/3
f 225/1/3 223/1/3 222/1/3
f 226/1/3 223/1/3 225/1/3
f 229/11/3 228/11/3 227/11/3
f 230/11/3 228/11/3 229/11/3
f 231/11/3 229/11/3 227/11/3
f 232/11/3 228/11/3 230/11/3
f 233/11/3 231/11/3 227/11/3
f 234/11/3 228/11/3 232/11/3
f 235/11/3 233/11/3 227/11/3
f 235/11/3 234/11/3 233/11/3
f 236/11/3 228/11/3 234/11/3
f 236/11/3 234/11/3 235/11/3
f 239/12/3 238/12/3 237/12/3
f 240/12/3 238/12/3 239/12/3
f 243/10/3 242/10/3 241/10/3
f 244/10/3 242/10/3 243/10/3
f 247/10/3 246/10/3 245/10/3
f 248/10/3 246/10/3 247/10/3
f 251/10/3 250/10/3 249/10/3
f 252/10/3 250/10/3 251/10/3
f 255/4/3 254/4/3 253/4/3
f 256/4/3 254/4/3 255/4/3
f 259/4/3 258/4/3 257/4/3
f 260/4/3 258/4/3 259/4/3
f 263/4/3 262/4/3 261/4/3
f 264/4/3 262/4/3 263/4/3
f 265/1/4 266/1/4 268/1/4
f 268/1/4 266/1/4 269/1/4
f 267/1/4 268/1/4 271/1/4
f 269/1/4 270/1/4 272/1/4
f 267/1/4 271/1/4 273/1/4
f 273/1/4 271/1/4 274/1/4
f 272/1/4 270/1/4 275/1/4
f 275/1/4 270/1/4 276/1/4
f 274/1/4 275/1/4 277/1/4
f 277/1/4 275/1/4 278/1/4
f 279/1/4 280/1/4 282/1/4
f 282/1/4 280/1/4 283/1/4
f 281/1/4 282/1/4 285/1/4
f 283/1/4 284/1/4 286/1/4
f 281/1/4 285/1/4 287/1/4
f 287/1/4 285/1/4 288/1/4
f 286/1/4 284/1/4 289/1/4
f 289/1/4 284/1/4 290/1/4
f 288/1/4 289/1/4 291/1/4
f 291/1/4 289/1/4 292/1/4
f 293/1/4 294/1/4 296/1/4
f 296/1/4 294/1/4 297/1/4
f 295/1/4 296/1/4 299/1/4
f 297/1/4 298/1/4 300/1/4
f 295/1/4 299/1/4 301/1/4
f 301/1/4 299/1/4 302/1/4
f 300/1/4 298/1/4 303/1/4
f 303/1/4 298/1/4 304/1/4
f 302/1/4 303/1/4 305/1/4
f 305/1/4 303/1/4 306/1/4
f 307/11/4 308/11/4 311/11/4
f 309/11/4 310/11/4 312/11/4
f 307/11/4 311/11/4 313/11/4
f 312/11/4 310/11/4 314/11/4
f 307/11/4 313/11/4 315/11/4
f 313/11/4 314/11/4 315/11/4
f 314/11/4 310/11/4 316/11/4
f 315/11/4 314/11/4 316/11/4
f 317/12/4 318/12/4 319/12/4
f 319/12/4 318/12/4 320/12/4
f 321/12/4 322/12/4 323/12/4
f 323/12/4 322/12/4 324/12/4
f 325/10/4 326/10/4 327/10/4
f 327/10/4 326/10/4 328/10/4
f 329/10/4 330/10/4 331/10/4
f 331/10/4 330/10/4 332/10/4
f 333/10/4 334/10/4 335/10/4
f 335/10/4 334/10/4 336/10/4
f 337/5/4 338/5/4 339/5/4
f 339/5/4 338/5/4 340/5/4
f 341/5/4 342/5/4 343/5/4
f 343/5/4 342/5/4 344/5/4
f 345/5/4 346/5/4 347/5/4
f 347/5/4 346/5/4 348/5/4
f 349/5/4 350/5/4 351/5/4
f 351/5/4 350/5/4 352/5/4
f 355/1/5 354/1/5 353/1/5
f 356/1/5 354/1/5 355/1/5
f 359/1/5 358/1/5 357/1/5
f 360/1/5 358/1/5 359/1/5
f 363/1/5 362/1/5 361/1/5
f 364/1/5 362/1/5 363/1/5
f 367/11/5 366/11/5 365/11/5
f 368/11/5 366/11/5 367/11/5
f 372/1/5 370/1/5 369/1/5
f 374/1/5 372/1/5 371/1/5
f 375/1/5 370/1/5 372/1/5
f 375/1/5 372/1/5 374/1/5
f 377/1/5 374/1/5 373/1/5
f 378/1/5 374/1/5 377/1/5
f 380/1/5 376/1/5 375/1/5
f 381/1/5 376/1/5 380/1/5
f 382/2/5 379/2/5 378/2/5
f 383/3/5 380/3/5 379/3/5
f 383/2/5 379/2/5 382/2/5
f 384/3/5 380/3/5 383/3/5
f 386/3/5 383/3/5 382/3/5
f 387/2/5 384/2/5 383/2/5
f 387/3/5 383/3/5 386/3/5
f 388/2/5 384/2/5 387/2/5
f 390/1/5 386/1/5 385/1/5
f 391/1/5 386/1/5 390/1/5
f 393/1/5 389/1/5 388/1/5
f 394/1/5 389/1/5 393/1/5
f 396/2/5 392/2/5 391/2/5
f 397/3/5 393/3/5 392/3/5
f 397/2/5 392/2/5 396/2/5
f 398/3/5 393/3/5 397/3/5
f 400/1/5 396/1/5 395/1/5
f 401/1/5 396/1/5 400/1/5
f 403/1/5 399/1/5 398/1/5
f 404/1/5 399/1/5 403/1/5
f 405/3/5 402/3/5 401/3/5
f 406/2/5 403/2/5 402/2/5
f 406/3/5 402/3/5 405/3/5
f 407/2/5 403/2/5 406/2/5
f 408/2/5 406/2/5 405/2/5
f 409/3/5 407/3/5 406/3/5
f 409/2/5 406/2/5 408/2/5
f 410/3/5 407/3/5 409/3/5
f 414/12/5 412/12/5 411/12/5
f 415/12/5 412/12/5 414/12/5
f 417/12/5 412/12/5 415/12/5
f 418/12/5 417/12/5 416/12/5
f 419/12/5 412/12/5 417/12/5
f 419/12/5 417/12/5 418/12/5
f 420/9/5 413/9/5 412/9/5
f 420/12/5 412/12/5 419/12/5
f 421/9/5 413/9/5 420/9/5
f 423/12/5 420/12/5 419/12/5
f 424/8/5 421/8/5 420/8/5
f 424/12/5 420/12/5 423/12/5
f 425/8/5 421/8/5 424/8/5
f 426/10/5 423/10/5 422/10/5
f 427/12/5 424/12/5 423/12/5
f 427/10/5 423/10/5 426/10/5
f 429/12/5 424/12/5 427/12/5
f 430/7/5 425/7/5 424/7/5
f 430/12/5 424/12/5 429/12/5
f 431/10/5 429/10/5 428/10/5
f 431/10/5 430/10/5 429/10/5
f 432/10/5 430/10/5 431/10/5
f 433/7/5 425/7/5 430/7/5
f 433/10/5 430/10/5 432/10/5
f 434/7/5 425/7/5 433/7/5
f 436/10/5 433/10/5 432/10/5
f 437/10/5 436/10/5 435/10/5
f 438/10/5 433/10/5 436/10/5
f 438/10/5 436/10/5 437/10/5
f 439/6/5 434/6/5 433/6/5
f 439/10/5 433/10/5 438/10/5
f 440/6/5 434/6/5 439/6/5
f 440/4/5 439/4/5 438/4/5
f 441/6/5 434/6/5 440/6/5
f 443/4/5 440/4/5 438/4/5
f 444/4/5 440/4/5 443/4/5
f 444/4/5 443/4/5 442/4/5
f 445/5/5 441/5/5 440/5/5
f 445/4/5 440/4/5 444/4/5
f 446/5/5 445/5/5 444/5/5
f 446/5/5 441/5/5 445/5/5
f 447/5/5 441/5/5 446/5/5
f 449/4/5 444/4/5 442/4/5
f 450/5/5 446/5/5 444/5/5
f 450/4/5 444/4/5 449/4/5
f 451/5/5 450/5/5 449/5/5
f 451/5/5 446/5/5 450/5/5
f 452/5/5 446/5/5 451/5/5
f 454/4/5 449/4/5 448/4/5
f 455/5/5 451/5/5 449/5/5
f 455/4/5 449/4/5 454/4/5
f 456/4/5 454/4/5 453/4/5
f 457/5/5 455/5/5 454/5/5
f 457/4/5 454/4/5 456/4/5
f 458/5/5 451/5/5 455/5/5
f 458/5/5 455/5/5 457/5/5
f 459/5/5 451/5/5 458/5/5
f 460/5/5 457/5/5 456/5/5
f 460/5/5 458/5/5 457/5/5
f 461/5/5 458/5/5 460/5/5
f 462/1/6 463/1/6 465/1/6
f 464/1/6 465/1/6 467/1/6
f 465/1/6 463/1/6 468/1/6
f 467/1/6 465/1/6 468/1/6
f 466/1/6 467/1/6 470/1/6
f 470/1/6 467/1/6 471/1/6
f 468/1/6 469/1/6 473/1/6
f 473/1/6 469/1/6 474/1/6
f 471/2/6 472/2/6 475/2/6
f 472/3/6 473/3/6 476/3/6
f 475/2/6 472/2/6 476/2/6
f 476/3/6 473/3/6 477/3/6
f 475/3/6 476/3/6 479/3/6
f 476/2/6 477/2/6 480/2/6
f 479/3/6 476/3/6 480/3/6
f 480/2/6 477/2/6 481/2/6
f 478/1/6 479/1/6 483/1/6
f 483/1/6 479/1/6 484/1/6
f 481/1/6 482/1/6 486/1/6
f 486/1/6 482/1/6 487/1/6
f 484/2/6 485/2/6 489/2/6
f 485/3/6 486/3/6 490/3/6
f 489/2/6 485/2/6 490/2/6
f 490/3/6 486/3/6 491/3/6
f 488/1/6 489/1/6 493/1/6
f 493/1/6 489/1/6 494/1/6
f 491/1/6 492/1/6 496/1/6
f 496/1/6 492/1/6 497/1/6
f 494/3/6 495/3/6 498/3/6
f 495/2/6 496/2/6 499/2/6
f 498/3/6 495/3/6 499/3/6
f 499/2/6 496/2/6 500/2/6
f 498/2/6 499/2/6 501/2/6
f 499/3/6 500/3/6 502/3/6
f 501/2/6 499/2/6 502/2/6
f 502/3/6 500/3/6 503/3/6
f 504/12/6 505/12/6 507/12/6
f 507/12/6 505/12/6 508/12/6
f 508/12/6 505/12/6 510/12/6
f 509/12/6 510/12/6 511/12/6
f 510/12/6 505/12/6 512/12/6
f 511/12/6 510/12/6 512/12/6
f 505/9/6 506/9/6 513/9/6
f 512/12/6 505/12/6 513/12/6
f 513/9/6 506/9/6 514/9/6
f 512/12/6 513/12/6 516/12/6
f 513/8/6 514/8/6 517/8/6
f 516/12/6 513/12/6 517/12/6
f 517/8/6 514/8/6 518/8/6
f 515/10/6 516/10/6 519/10/6
f 516/12/6 517/12/6 520/12/6
f 519/10/6 516/10/6 520/10/6
f 520/12/6 517/12/6 522/12/6
f 517/7/6 518/7/6 523/7/6
f 522/12/6 517/12/6 523/12/6
f 521/10/6 522/10/6 524/10/6
f 522/10/6 523/10/6 524/10/6
f 524/10/6 523/10/6 525/10/6
f 523/7/6 518/7/6 526/7/6
f 525/10/6 523/10/6 526/10/6
f 526/7/6 518/7/6 527/7/6
f 525/10/6 526/10/6 529/10/6
f 528/10/6 529/10/6 530/10/6
f 529/10/6 526/10/6 531/10/6
f 530/10/6 529/10/6 531/10/6
f 526/6/6 527/6/6 532/6/6
f 531/10/6 526/10/6 532/10/6
f 532/6/6 527/6/6 533/6/6
f 531/4/6 532/4/6 533/4/6
f 533/6/6 527/6/6 534/6/6
f 531/4/6 533/4/6 536/4/6
f 536/4/6 533/4/6 537/4/6
f 535/4/6 536/4/6 537/4/6
f 533/5/6 534/5/6 538/5/6
f 537/4/6 533/4/6 538/4/6
f 537/5/6 538/5/6 539/5/6
f 538/5/6 534/5/6 539/5/6
f 539/5/6 534/5/6 540/5/6
f 535/4/6 537/4/6 542/4/6
f 537/5/6 539/5/6 543/5/6
f 542/4/6 537/4/6 543/4/6
f 542/5/6 543/5/6 544/5/6
f 543/5/6 539/5/6 544/5/6
f 544/5/6 539/5/6 545/5/6
f 541/4/6 542/4/6 547/4/6
f 542/5/6 544/5/6 548/5/6
f 547/4/6 542/4/6 548/4/6
f 546/4/6 547/4/6 549/4/6
f 547/5/6 548/5/6 550/5/6
f 549/4/6 547/4/6 550/4/6
f 548/5/6 544/5/6 551/5/6
f 550/5/6 548/5/6 551/5/6
f 551/5/6 544/5/6 552/5/6
f 549/5/6 550/5/6 553/5/6
f 550/5/6 551/5/6 553/5/6
f 553/5/6 551/5/6 554/5/6
f 555/1/6 556/1/6 557/1/6
f 557/1/6 556/1/6 558/1/6
f 559/1/6 560/1/6 561/1/6
f 561/1/6 560/1/6 562/1/6
f 563/1/6 564/1/6 565/1/6
f 565/1/6 564/1/6 566/1/6
f 567/11/6 568/11/6 569/11/6
f 569/11/6 568/11/6 570/11/6
